<svg xmlns="http://www.w3.org/2000/svg" viewBox="0 0 160 90" width="100%" height="100%">
  <defs>
    <linearGradient id="grad_cam1_preset8_svg" x1="0%" y1="0%" x2="100%" y2="100%">
      <stop offset="0%" stop-color="#0f172a" />
      <stop offset="100%" stop-color="#020617" />
    </linearGradient>
    <radialGradient id="glow_cam1_preset8_svg" cx="50%" cy="40%" r="55%">
      <stop offset="0%" stop-color="#8b5cf6" stop-opacity="0.25" />
      <stop offset="100%" stop-color="transparent" />
    </radialGradient>
  </defs>
  <rect width="160" height="90" fill="url(#grad_cam1_preset8_svg)" />
  <rect width="160" height="90" fill="url(#glow_cam1_preset8_svg)" />
  
  <!-- Subtle Grid Pattern -->
  <path d="M0 30h160M0 60h160M53 0v90M106 0v90" stroke="#334155" stroke-opacity="0.15" stroke-width="1" />
  
  <!-- Viewfinder Frame Lines -->
  <path d="M8 12h8M8 12v8M152 12h-8M152 12v8M8 78h8M8 78v-8M152 78h-8M152 78v-8" stroke="#8b5cf6" stroke-width="1.5" stroke-opacity="0.5" fill="none"/>
  
  <!-- Center Icon Graphic -->
  <g transform="translate(68, 20) scale(1)">
    <circle cx="8" cy="9" r="2" fill="#8b5cf6"/><circle cx="16" cy="9" r="2" fill="#8b5cf6"/><circle cx="12" cy="14" r="2" fill="#a78bfa"/><path d="M5 15a3 3 0 0 1 6 0M13 15a3 3 0 0 1 6 0M9 20a3 3 0 0 1 6 0" stroke="#64748b" stroke-width="1.5"/>
  </g>
  
  <!-- Camera Pill Badge -->
  <rect x="8" y="8" width="32" height="12" rx="3" fill="#000000" fill-opacity="0.8" stroke="#334155" stroke-width="0.5"/>
  <text x="24" y="17" fill="#8b5cf6" font-family="monospace" font-size="7" font-weight="bold" text-anchor="middle">CAM 1</text>
  
  <!-- Bottom Title Bar -->
  <rect x="0" y="66" width="160" height="24" fill="#020617" fill-opacity="0.9" />
  <text x="80" y="81" fill="#f8fafc" font-family="system-ui, -apple-system, sans-serif" font-size="8.5" font-weight="800" text-anchor="middle" letter-spacing="0.5">CONGREGATION</text>
</svg>